<svg xmlns="http://www.w3.org/2000/svg" style="display: none;">

    <symbol id="icon-genetic" viewBox="0 0 1024 1024">
        <path d="M512 960c-92.8 0-160-200-160-448S419.2 64 512 64s160 200 160 448-67.2 448-160 448z m0-32c65.6 0 128-185.6 128-416S577.6 96 512 96s-128 185.6-128 416 62.4 416 128 416z" fill="currentColor" />
        <path d="M124.8 736c-48-80 92.8-238.4 307.2-363.2S852.8 208 899.2 288 806.4 526.4 592 651.2 171.2 816 124.8 736z m27.2-16c33.6 57.6 225.6 17.6 424-97.6S905.6 361.6 872 304 646.4 286.4 448 401.6 118.4 662.4 152 720z" fill="currentColor" />
        <path d="M899.2 736c-46.4 80-254.4 38.4-467.2-84.8S76.8 368 124.8 288s254.4-38.4 467.2 84.8S947.2 656 899.2 736z m-27.2-16c33.6-57.6-97.6-203.2-296-318.4S184 246.4 152 304 249.6 507.2 448 622.4s392 155.2 424 97.6z" fill="currentColor" />
        <path d="M512 592c-44.8 0-80-35.2-80-80s35.2-80 80-80 80 35.2 80 80-35.2 80-80 80zM272 312c-27.2 0-48-20.8-48-48s20.8-48 48-48 48 20.8 48 48-20.8 48-48 48zM416 880c-27.2 0-48-20.8-48-48s20.8-48 48-48 48 20.8 48 48-20.8 48-48 48z m448-432c-27.2 0-48-20.8-48-48s20.8-48 48-48 48 20.8 48 48-20.8 48-48 48z" fill="#2F4BFF" />
    </symbol>

    <symbol id="icon-chip" viewBox="0 0 1024 1024">
        <path d="M625.6 516.8l19.2 81.6 104-38.4 4.8 14.4-110.4 40L560 824l-14.4-6.4 83.2-203.2-169.6-25.6 64 217.6c3.2 8-1.6 17.6-11.2 19.2s-17.6-1.6-19.2-11.2l-68.8-232-153.6-22.4 1.6-16 145.6 22.4-28.8-96-116.8 59.2-14.4-28.8 129.6-65.6L480 217.6 254.4 499.2l-12.8-9.6L480 190.4l9.6 6.4 27.2 11.2-96 227.2 177.6 41.6-64-268.8 16-3.2 67.2 278.4 136 32c8 1.6 14.4 11.2 11.2 19.2-1.6 8-11.2 14.4-19.2 11.2l-120-28.8zM608 512l-185.6-43.2 30.4 102.4 176 25.6L608 512z m-46.4-313.6l12.8-9.6L784 484.8l-12.8 9.6-209.6-296zM768 588.8l12.8 9.6-201.6 240-12.8-9.6 201.6-240z m-278.4 240l-11.2 11.2-232-243.2 11.2-11.2 232 243.2z" fill="currentColor" />
        <path d="M400 448m-64 0a64 64 0 1 0 128 0 64 64 0 1 0-128 0Z" fill="#2F4BFF" />
        <path d="M640 608m-56 0a56 56 0 1 0 112 0 56 56 0 1 0-112 0Z" fill="#2F4BFF" />
        <path d="M208 624c-44.8 0-80-35.2-80-80s35.2-80 80-80 80 35.2 80 80-35.2 80-80 80z m0-32c27.2 0 48-20.8 48-48s-20.8-48-48-48-48 20.8-48 48 20.8 48 48 48zM528 960c-44.8 0-80-35.2-80-80s35.2-80 80-80 80 35.2 80 80-35.2 80-80 80z m0-32c27.2 0 48-20.8 48-48s-20.8-48-48-48-48 20.8-48 48 20.8 48 48 48zM528 224c-44.8 0-80-35.2-80-80s35.2-80 80-80 80 35.2 80 80-35.2 80-80 80z m0-32c27.2 0 48-20.8 48-48s-20.8-48-48-48-48 20.8-48 48 20.8 48 48 48zM816 624c-44.8 0-80-35.2-80-80s35.2-80 80-80 80 35.2 80 80-35.2 80-80 80z m0-32c27.2 0 48-20.8 48-48s-20.8-48-48-48-48 20.8-48 48 20.8 48 48 48z" fill="#2F4BFF" />
    </symbol>


    <symbol id="icon-network" viewBox="0 0 1024 1024">
        <path d="M512 960C264 960 64 760 64 512S264 64 512 64s448 200 448 448-200 448-448 448z m0-32c230.4 0 416-185.6 416-416S742.4 96 512 96 96 281.6 96 512s185.6 416 416 416z" fill="currentColor" />
        <path d="M470.4 654.4c-1.6-1.6-3.2-6.4-6.4-9.6-6.4 8-9.6 14.4-11.2 16-9.6 14.4-19.2 27.2-27.2 36.8 20.8-3.2 40-9.6 59.2-19.2-4.8-6.4-9.6-14.4-14.4-24z m-99.2 9.6c8-11.2 17.6-22.4 28.8-40 1.6-3.2 22.4-32 30.4-44.8-8-17.6-16-40-25.6-70.4 0-1.6 0-1.6-1.6-3.2-1.6-3.2-1.6-6.4-3.2-9.6-11.2 4.8-33.6 14.4-38.4 16-16 6.4-27.2 11.2-38.4 16-8 3.2-16 6.4-22.4 9.6-36.8 17.6-59.2 36.8-70.4 57.6 22.4 48 57.6 83.2 94.4 92.8l19.2 4.8c8-6.4 17.6-16 27.2-28.8z m-96-182.4c8-3.2 16-6.4 24-11.2 11.2-4.8 24-9.6 40-16 3.2-1.6 30.4-12.8 40-16-11.2-25.6-19.2-41.6-30.4-56-9.6-12.8-20.8-19.2-33.6-20.8 1.6 16 6.4 30.4 16 43.2 11.2 14.4 8 33.6-4.8 44.8-14.4 11.2-33.6 8-44.8-4.8-14.4-17.6-22.4-38.4-27.2-59.2-36.8 28.8-51.2 78.4-43.2 139.2 16-17.6 36.8-32 64-43.2z m246.4 249.6c-46.4 28.8-97.6 36.8-163.2 28.8-19.2 9.6-38.4 12.8-60.8 8-67.2-14.4-120-62.4-132.8-120-3.2-16-3.2-30.4-1.6-46.4-38.4-105.6-22.4-235.2 78.4-286.4 4.8-1.6 8-4.8 12.8-6.4 9.6-38.4 30.4-75.2 60.8-105.6 73.6-75.2 176-83.2 259.2-3.2 68.8 67.2 73.6 132.8 19.2 188.8-28.8 28.8-68.8 52.8-134.4 81.6l4.8 14.4c0 1.6 0 1.6 1.6 3.2 3.2 11.2 8 20.8 11.2 30.4 56-65.6 108.8-97.6 179.2-97.6 211.2 0 281.6 246.4 113.6 355.2-70.4 44.8-131.2 48-187.2 12.8-22.4-11.2-41.6-30.4-60.8-57.6z m-124.8-390.4c16 19.2 27.2 40 41.6 72 56-25.6 89.6-44.8 110.4-67.2 28.8-28.8 27.2-56-17.6-97.6-56-54.4-120-49.6-169.6 1.6-14.4 14.4-25.6 32-33.6 49.6 24 3.2 48 17.6 68.8 41.6zM512 600c1.6 1.6 11.2 17.6 12.8 22.4 3.2 4.8 6.4 9.6 9.6 16 11.2-11.2 20.8-24 32-40 43.2-60.8 112-72 156.8-32 46.4 40 41.6 108.8-16 148.8-14.4 9.6-35.2 6.4-44.8-8-9.6-14.4-6.4-35.2 8-44.8 24-17.6 25.6-35.2 11.2-48-16-14.4-40-9.6-62.4 20.8-16 22.4-30.4 40-46.4 57.6 54.4 70.4 94.4 78.4 163.2 33.6 115.2-73.6 68.8-236.8-78.4-236.8-54.4 0-97.6 30.4-150.4 99.2 0 3.2 1.6 6.4 4.8 11.2z" fill="#2F4BFF" />
        <path d="M491.2 673.6l4.8 6.4-6.4 4.8c-19.2 11.2-40 17.6-62.4 20.8l-19.2 1.6 11.2-14.4c8-9.6 16-20.8 27.2-36.8 1.6-1.6 1.6-1.6 3.2-4.8 3.2-4.8 3.2-4.8 8-11.2l6.4-9.6 6.4 11.2c3.2 6.4 4.8 8 6.4 9.6 4.8 8 9.6 16 14.4 22.4z m-27.2-12.8c-3.2 3.2-3.2 3.2-3.2 6.4-4.8 8-9.6 14.4-14.4 20.8 9.6-3.2 19.2-6.4 28.8-11.2-4.8-6.4-8-11.2-11.2-16 0-1.6 0 0 0 0z m-115.2 38.4l-3.2 3.2h-3.2l-19.2-4.8c-38.4-9.6-75.2-46.4-99.2-96l-1.6-3.2 1.6-3.2c11.2-22.4 36.8-43.2 73.6-60.8 6.4-3.2 14.4-6.4 22.4-9.6 11.2-4.8 22.4-9.6 38.4-16 1.6 0 19.2-8 20.8-8 8-3.2 12.8-4.8 17.6-6.4l8-3.2 3.2 8c1.6 3.2 1.6 6.4 3.2 9.6v3.2c11.2 32 19.2 52.8 25.6 68.8l1.6 4.8-3.2 3.2c-3.2 4.8-8 11.2-12.8 19.2-4.8 6.4-16 24-17.6 24-12.8 17.6-20.8 30.4-30.4 40-8 9.6-16 19.2-25.6 27.2z m16-40c8-9.6 17.6-22.4 28.8-40 0 0 12.8-17.6 17.6-24 4.8-6.4 8-11.2 11.2-16-6.4-16-14.4-36.8-24-65.6v-3.2-1.6c-3.2 1.6-6.4 1.6-9.6 3.2-1.6 0-19.2 8-20.8 8-16 6.4-27.2 11.2-38.4 16-8 3.2-16 6.4-22.4 9.6-32 14.4-54.4 32-64 49.6 22.4 44.8 54.4 76.8 86.4 84.8 4.8 1.6 9.6 1.6 14.4 3.2 4.8-4.8 12.8-12.8 20.8-24z m-150.4-129.6l-11.2 9.6-1.6-14.4c-9.6-62.4 6.4-115.2 46.4-145.6l9.6-8 3.2 12.8c4.8 20.8 12.8 40 25.6 56 8 11.2 24 12.8 33.6 4.8s12.8-24 4.8-33.6c-9.6-12.8-16-28.8-17.6-46.4v-9.6l9.6 1.6c14.4 1.6 27.2 9.6 40 24 11.2 14.4 20.8 30.4 32 57.6l3.2 8-8 3.2c-3.2 1.6-9.6 3.2-19.2 8-1.6 0-19.2 8-20.8 8-16 6.4-28.8 11.2-40 16-8 3.2-16 8-24 11.2-27.2 6.4-48 20.8-65.6 36.8z m57.6-56c8-3.2 16-6.4 24-11.2-9.6-1.6-17.6-6.4-22.4-14.4-11.2-14.4-20.8-32-25.6-49.6-24 25.6-35.2 62.4-32 108.8 16-12.8 33.6-24 56-33.6z m84.8-35.2c4.8-1.6 8-3.2 11.2-4.8-9.6-20.8-17.6-35.2-27.2-46.4-6.4-8-12.8-12.8-17.6-14.4 1.6 9.6 6.4 19.2 12.8 27.2 11.2 14.4 11.2 32 1.6 46.4 4.8-3.2 19.2-8 19.2-8z m160 286.4l6.4-3.2 4.8 6.4c20.8 27.2 38.4 44.8 60.8 59.2 52.8 33.6 110.4 30.4 177.6-12.8C928 667.2 856 432 656 432c-65.6 0-116.8 28.8-172.8 94.4l-9.6 11.2-4.8-12.8c-3.2-9.6-6.4-19.2-11.2-30.4v-3.2l-4.8-14.4-3.2-6.4 6.4-3.2c67.2-28.8 104-52.8 131.2-80 51.2-52.8 46.4-115.2-19.2-177.6-76.8-73.6-176-70.4-248 3.2-28.8 28.8-49.6 65.6-57.6 102.4l-1.6 3.2-3.2 1.6c-4.8 1.6-8 3.2-12.8 6.4-89.6 44.8-116.8 163.2-75.2 276.8v3.2c-3.2 14.4-1.6 28.8 1.6 43.2 11.2 54.4 62.4 99.2 126.4 113.6 19.2 4.8 38.4 1.6 56-6.4l1.6-1.6h3.2c64 4.8 113.6-3.2 158.4-30.4zM360 768c-20.8 9.6-41.6 11.2-64 6.4-70.4-14.4-126.4-65.6-139.2-126.4-3.2-16-3.2-32-1.6-46.4-43.2-118.4-14.4-244.8 83.2-292.8l9.6-4.8c9.6-38.4 32-75.2 60.8-105.6 80-80 187.2-83.2 270.4-3.2 72 68.8 78.4 140.8 19.2 200-28.8 28.8-65.6 51.2-129.6 81.6 0 1.6 1.6 4.8 3.2 6.4l1.6 3.2c1.6 6.4 4.8 12.8 6.4 17.6 56-62.4 108.8-89.6 176-89.6 216 0 294.4 256 118.4 369.6-72 46.4-137.6 51.2-195.2 12.8-22.4-14.4-40-32-59.2-56-46.4 27.2-97.6 35.2-160 27.2z m30.4-422.4c-19.2-22.4-41.6-35.2-65.6-40l-11.2-1.6 4.8-9.6c8-19.2 20.8-36.8 35.2-51.2 54.4-56 123.2-57.6 180.8-1.6 46.4 44.8 51.2 75.2 17.6 110.4-22.4 22.4-56 43.2-113.6 68.8l-8 3.2V416c-12.8-32-24-51.2-40-70.4z m12.8-9.6c16 17.6 27.2 38.4 38.4 65.6 51.2-24 81.6-41.6 100.8-62.4 25.6-27.2 22.4-48-17.6-86.4-51.2-49.6-110.4-48-158.4 1.6-11.2 11.2-20.8 24-28.8 38.4 24 6.4 46.4 20.8 65.6 43.2z m94.4 256l-1.6-4.8 3.2-4.8c56-73.6 100.8-102.4 156.8-102.4 152 0 206.4 172.8 83.2 251.2-73.6 48-118.4 38.4-174.4-35.2l-4.8-4.8 4.8-4.8c16-16 30.4-33.6 46.4-56 24-33.6 52.8-41.6 75.2-22.4 19.2 17.6 16 41.6-11.2 60.8-11.2 8-12.8 22.4-6.4 33.6 8 11.2 22.4 12.8 33.6 6.4 52.8-36.8 59.2-99.2 16-136s-105.6-25.6-145.6 30.4c-11.2 16-20.8 28.8-32 40l-6.4 8-6.4-9.6c-3.2-4.8-6.4-9.6-9.6-16-1.6-1.6-3.2-3.2-6.4-9.6-4.8-8-4.8-8-6.4-11.2v-1.6c-3.2-3.2-4.8-8-8-11.2z m20.8 3.2c3.2 4.8 3.2 4.8 8 12.8 3.2 6.4 4.8 8 6.4 9.6 1.6 1.6 3.2 4.8 3.2 6.4 8-9.6 16-19.2 24-30.4 44.8-64 118.4-78.4 169.6-33.6 51.2 44.8 44.8 118.4-17.6 161.6-17.6 12.8-43.2 8-56-9.6-12.8-17.6-8-43.2 9.6-56 19.2-12.8 20.8-25.6 9.6-35.2-12.8-11.2-32-6.4-51.2 19.2-14.4 20.8-28.8 38.4-43.2 52.8 49.6 62.4 84.8 67.2 148.8 27.2 110.4-72 62.4-224-73.6-224-49.6 0-89.6 27.2-140.8 92.8 0 1.6 1.6 4.8 3.2 6.4z" fill="#050D42" />
    </symbol>

</svg>